<svg width="90" height="27" viewBox="0 0 90 27" fill="none" xmlns="http://www.w3.org/2000/svg">
<g clip-path="url(#clip0_66_640)">
<path d="M6.02344 13.0547H9.53906V13.0245V5.97656C9.53906 4.61958 10.6431 3.51562 12 3.51562C12.8547 3.51562 13.6088 3.95386 14.0501 4.61719H17.8211C17.2057 1.97137 14.8331 0 12 0C8.69925 0 6.02344 2.67581 6.02344 5.97656V13.0547Z" fill="#43A3F2"/>
<path d="M13.0547 17.9766V14.4609H5.97656C4.61958 14.4609 3.51562 13.357 3.51562 12C3.51562 11.1453 3.95386 10.3913 4.61719 9.94993V6.17883C1.97137 6.79425 0 9.16688 0 12C0 15.3008 2.67581 17.9766 5.97656 17.9766H13.0547Z" fill="#43A3F2"/>
<path d="M17.9766 10.9453H14.4609V18.0234C14.4609 19.3804 13.3569 20.4844 12 20.4844C11.1453 20.4844 10.3912 20.0461 9.94993 19.3828H6.17883C6.79425 22.0286 9.16688 24 12 24C15.3008 24 17.9766 21.3242 17.9766 18.0234V10.9453Z" fill="#43A3F2"/>
<path d="M18.0234 6.02344H10.9453V9.53906H18.0234C19.3804 9.53906 20.4844 10.6431 20.4844 12C20.4844 12.8547 20.0461 13.6087 19.3828 14.0501V17.8211C22.0286 17.2057 24 14.8331 24 12C24 8.69925 21.3242 6.02344 18.0234 6.02344Z" fill="#43A3F2"/>
</g>
<path d="M37.4585 20.7749C32.3727 20.7749 29.1884 17.4073 29.1884 12.0465C29.1884 6.75454 32.556 3.27236 37.6189 3.27236C41.8571 3.27236 44.904 5.70073 45.4309 9.50364H41.5135C41.0095 7.80836 39.5662 6.84618 37.5273 6.84618C34.7782 6.84618 33.1058 8.79345 33.1058 12.0236C33.1058 15.208 34.8011 17.2011 37.5273 17.2011C39.612 17.2011 41.1469 16.1702 41.6051 14.4978H45.4538C44.8582 18.2778 41.6967 20.7749 37.4585 20.7749ZM55.3813 9.04545V12.3673H54.2588C52.2428 12.3673 51.0286 13.2607 51.0286 15.5287V20.5H47.5006V9.06836H50.8224L51.0057 10.7636C51.4868 9.64109 52.4948 8.88509 54.0297 8.88509C54.4421 8.88509 54.9002 8.93091 55.3813 9.04545ZM58.9065 7.25854C57.7839 7.25854 56.8905 6.36509 56.8905 5.24254C56.8905 4.12 57.7839 3.24945 58.9065 3.24945C60.0061 3.24945 60.8996 4.12 60.8996 5.24254C60.8996 6.36509 60.0061 7.25854 58.9065 7.25854ZM57.1654 20.5V9.04545H60.6934V20.5H57.1654ZM66.6619 20.5H63.3401V3.22654H66.8681V10.3742C67.5554 9.34327 69.0674 8.656 70.7168 8.656C73.9241 8.656 75.963 11.1531 75.963 14.8873C75.963 18.4382 73.695 20.7978 70.4419 20.7978C68.8383 20.7978 67.4637 20.0876 66.8452 19.0338L66.6619 20.5ZM66.891 14.704C66.891 16.4222 68.0365 17.5676 69.6859 17.5676C71.3583 17.5676 72.4121 16.3993 72.4121 14.704C72.4121 13.0087 71.3583 11.8404 69.6859 11.8404C68.0365 11.8404 66.891 12.9858 66.891 14.704ZM76.63 25.9982V23.0429H78.5773C79.7686 23.0429 80.2726 22.6764 80.7308 21.4393L80.937 20.8895L76.3322 9.04545H80.1122L82.6093 16.3993L85.3813 9.04545H89.0468L83.2279 22.9971C82.2657 25.3338 80.9828 26.3189 78.9668 26.3189C78.1191 26.3189 77.3173 26.2044 76.63 25.9982Z" fill="#2D2D2D"/>
<defs>
<clipPath id="clip0_66_640">
<rect width="24" height="24" fill="white"/>
</clipPath>
</defs>
</svg>
